<?xml version="1.0" encoding="UTF-8"?>
<svg id="Layer_1" data-name="Layer 1" xmlns="http://www.w3.org/2000/svg" xmlns:xlink="http://www.w3.org/1999/xlink" viewBox="0 0 420 221.48">
  <defs>
    <style>
      .cls-1 {
        fill: #128c40;
      }

      .cls-2 {
        fill: #056b40;
      }

      .cls-3 {
        fill: #9fba36;
      }

      .cls-4 {
        fill: #d8db2f;
      }

      .cls-5 {
        fill: url(#linear-gradient-2);
      }

      .cls-6 {
        fill: #20814e;
      }

      .cls-7 {
        fill: #f08022;
      }

      .cls-8 {
        fill: #1c7444;
      }

      .cls-9 {
        fill: #fff;
      }

      .cls-10 {
        fill: #dabe2e;
      }

      .cls-11 {
        fill: url(#linear-gradient-4);
      }

      .cls-12 {
        fill: #fcc503;
      }

      .cls-13 {
        fill: url(#linear-gradient-3);
      }

      .cls-14 {
        fill: url(#linear-gradient);
      }
    </style>
    <linearGradient id="linear-gradient" x1="266.32" y1="172.03" x2="266.32" y2="32.79" gradientUnits="userSpaceOnUse">
      <stop offset="0" stop-color="#0a7038"/>
      <stop offset=".71" stop-color="#0a5668"/>
      <stop offset="1" stop-color="#264081"/>
    </linearGradient>
    <linearGradient id="linear-gradient-2" x1="334.46" y1="77.33" x2="334.46" y2="42.67" gradientUnits="userSpaceOnUse">
      <stop offset="0" stop-color="#2d9b44"/>
      <stop offset="1" stop-color="#88bd45"/>
    </linearGradient>
    <linearGradient id="linear-gradient-3" x1="123.98" y1="162.09" x2="123.98" y2="76.28" gradientUnits="userSpaceOnUse">
      <stop offset="0" stop-color="#0a7038"/>
      <stop offset="1" stop-color="#0a5668"/>
    </linearGradient>
    <linearGradient id="linear-gradient-4" x1="57.22" y1="175.2" x2="56.83" y2="82.16" xlink:href="#linear-gradient-3"/>
  </defs>
  <path class="cls-8" d="M177.76,185.78c.28.94-.19,2.32-.91,2.66-.44.21-1.49-.27-1.8-.64s-.32-1.56,0-1.98c.34-.45.82-.84,1.16-.93.4-.1,1.41.45,1.55.9Z"/>
  <path class="cls-8" d="M383.31,185.59c.9.68.03,3.06-.79,3.05-.45,0-1.39-.49-1.55-.9-.33-.84.18-2.4.88-2.64.33-.02,1.19.29,1.46.49Z"/>
  <circle class="cls-6" cx="406.65" cy="198.75" r="1.35"/>
  <circle class="cls-6" cx="402.33" cy="198.71" r="1.35"/>
  <circle class="cls-6" cx="397.89" cy="198.71" r="1.35"/>
  <path class="cls-9" d="M135.47,193.5c2.07-.17.42-2.31,4.33-1.09-1.11,2.57-2.72,4.4-4.96,5.95-.57.4-2.34.44-2.66-.23-1.31-2.84-.37-6.08,2-8.06.65-.54,2.12-.14,2.57.53-1.12.24-2.78.73-3.02,1.83-.07.51,1.23,1.12,1.73,1.08Z"/>
  <path class="cls-9" d="M167.12,195.11c-.63,1.35-1.25,2.85-2.55,3.56-.56.3-1.36-1.21-1.28-1.76.42-2.7,1.68-4.94,3.67-6.39.33.88.69,1.23,1.63,1.42l-1.47,3.17Z"/>
  <path class="cls-9" d="M195.28,192.01c-.22.24-3.61,8.98-4.72,6.61s1.07-6.2,2.49-7.92c.14-.17,1.22-.15,1.17.05l-.24.94,1.3.32Z"/>
  <path class="cls-9" d="M153.77,198.77c-4.12-.48.39-7.33,1.88-8.46l1.38,2.05c-.73,1.94-1.82,4.43-3.26,6.41Z"/>
  <path class="cls-9" d="M144.85,192.54l-3.43-.96c.84-1.65,4-7.09,5.99-6.85-.36,3.02-1.33,4.94-2.56,7.81Z"/>
  <path class="cls-9" d="M188.74,206.46c-.22.1-.89-.22-.89-.43.03-1.35,1.23-1.8,2.59-2.67.16,1.31-.77,2.66-1.7,3.09Z"/>
  <path class="cls-9" d="M212.38,192.13c-.5,1.07-2.72,7.03-4.3,6.74-.33-.06-.66-.78-.68-1.17-.16-2.98,1.35-5.55,3.55-7.35l.25,1.24c.04.2.35.24,1.18.54Z"/>
  <path class="cls-9" d="M237.61,190.85c1.77-1.72,1.03,2.87-2.55,3.99.42-1.72,1.44-2.91,2.55-3.99Z"/>
  <path class="cls-9" d="M230.34,190.45c.92,0-.88,4.01-3.28,4.37.22-.98,2.23-4.36,3.28-4.37Z"/>
  <path class="cls-9" d="M207.65,203.69c-.27,1.23-1.64,3.24-2.68,2.54-.28-.19-.29-1.19,0-1.41.56-.45,1.86-.97,2.68-1.12Z"/>
  <path class="cls-9" d="M331.85,203.48c-.03,1.32-.56,2.44-1.8,2.94-.24.09-.87-.54-.77-.77.34-.78,1.61-1.88,2.57-2.17Z"/>
  <path class="cls-9" d="M381.15,205.7c.54-1.59,1.14-3.29,1.94-4.89l2.34-4.69c1.33-.1-3.2,11.04-4.29,9.58Z"/>
  <path class="cls-8" d="M182.87,200c-2.31-1.34,1.24-7.18,1.54-9.38-3.03.72-5.53,7.17-6.36,9.49-.24.28-1.37.16-1.48-.21l-.51-1.69-1.36,1.52c-.37.41-1.61.68-2.11.46-.63-.28-1.08-1.35-1.31-2.14-1.09,1.71-3.6,2.93-4.19,1.91l-.87-1.51c-.48.75-1.37,1.76-2.19,1.84-1.84.18-3.06-1.03-3.87-2.5-.82,1.16-1.74,2.2-3.1,2.5-.94.21-1.68-.7-2.11-1.52-.76.66-1.84,1.59-2.78,1.51-1.14-.09-2.59-.88-2.74-2.14-.12-1.09.04-2.03.2-3.23l-2.4-.21c-1.4,3.09-2.38,6.3-2.65,9.73-.18,2.27,1.18,3.53,3.48,4.38-2.51,1.51-5.93,0-6.58-2.88-.54-2.41.08-4.95.96-7.16l1.95-4.91c-1.05-.48-2.24-.86-3.39-1.08l-2.79,3.95c-1.07,1.52-2.9,2.87-4.67,3.36-2.54.71-4.42-1.37-4.75-3.69-.35-2.44.19-4.87,2.07-6.34,1.72-1.34,4.59-2.17,6.53-.65.85.66,1.33,2.35,3.01,1.71l2.09-3.11c1.19-1.77,2.5-3.35,4.28-4.55.89-.6,2.52-.58,3.1.37.84,1.36.31,2.99-.19,4.38l-1.79,4.99c3.36,2.44,2.61-3.95,7.98-3.89.8,0,1.45,1.36,1.85,2.2l2.35-5.8c.35-.86.59-1.9.76-2.83.29-.29,1.12-.43,1.5-.3,2.2.72.17,4.43-.68,6.27-1.49,3.24-2.94,6.42-4.19,10.01,3.67-1.58,3.54-7.13,7.77-9.26.46-.23,1.76-.42,2.19-.16s.81.85,1.41,1.59c1-2.27,1.99-4.48,2.76-6.81.35-1.05-.02-1.86,1.5-1.77,2.99.17-.02,5.76-.77,7.28-1.47,3.01-2.85,5.97-3.6,9.45,3.09-2.33,4.42-5.78,5.39-9.32.42-.37,1.71-.33,2.16,0,1.97,1.49-2.49,6.36-2.68,9.04,3.22-2.32,5.02-5.81,5.67-9.47.63.05,1.51.08,1.8.37s.43,1.14.59,1.74c.83-1.02,2.65-3.08,4.23-1.82,1.9,1.52-1.39,7.2-1.55,8.8-.02.22.79.05.97-.14,3.25-3.4,3.09-7.29,6.66-8.85,1.56-.68,2.86.01,3.51,1.42.34-1.31.78-1.81,1.84-1.56.78.19,1.35,1,1.03,1.91-.59,1.69-1,3.42-1.74,4.95s-1.34,2.71-1.89,4.03l5.71-7.11c.15,2.05-4.38,7.54-6.14,8.43l-1.56,3.46c-.97,2.15-3.6,3.01-5.49,1.8-.28-.18-.69-1-.68-1.33s.43-.9.78-1.11l3.19-1.94c.65-.4,1.2-2,1.64-2.72-1.06.34-2.13.78-3.04.39s-1.53-1.42-1.81-2.64c-.86,1.21-2.83,3.44-4.45,2.5ZM144.85,192.54c1.23-2.88,2.2-4.8,2.56-7.81-1.99-.24-5.15,5.2-5.99,6.85l3.43.96ZM135.47,193.5c-.5.04-1.79-.57-1.73-1.08.24-1.1,1.9-1.59,3.02-1.83-.46-.68-1.92-1.08-2.57-.53-2.37,1.98-3.31,5.22-2,8.06.31.68,2.08.63,2.66.23,2.23-1.55,3.85-3.37,4.96-5.95-3.92-1.21-2.26.92-4.33,1.09ZM153.77,198.77c1.44-1.98,2.54-4.48,3.26-6.41l-1.38-2.05c-1.49,1.13-6,7.98-1.88,8.46ZM167.12,195.11l1.47-3.17c-.94-.2-1.3-.55-1.63-1.42-1.99,1.45-3.26,3.69-3.67,6.39-.09.56.72,2.06,1.28,1.76,1.31-.71,1.93-2.2,2.55-3.56ZM195.28,192.01l-1.3-.32.24-.94c.05-.2-1.03-.22-1.17-.05-1.42,1.73-3.62,5.52-2.49,7.92s4.5-6.37,4.72-6.61ZM188.74,206.46c.93-.43,1.86-1.78,1.7-3.09-1.37.86-2.56,1.32-2.59,2.67,0,.21.67.52.89.43Z"/>
  <path class="cls-9" d="M394.67,190.43c1.06,1.09-1.53,4.07-3.01,4.17-.08-.72,2.48-4.72,3.01-4.17Z"/>
  <path class="cls-6" d="M290.43,196.46c1.43-2.17,2.24-4.36,3.1-6.63l2.62-6.91c.16-.43,1.25-.52,1.62-.29,1.97,1.23-1.18,6.22-1.53,8.08.98-.66,2.1-1.64,3.19-1.27,2.96,1.02-.58,7.49-1.19,9.18-.06.18.98.12,1.12-.06,1-1.3,2.59-3.76,3.8-5.53.83,1.23-3.81,8.55-6.05,7-2.57-1.78,1-7.19,1.72-9.23-3.18-.1-6.38,7.53-6.41,9.46-.49.02-1.6-.07-1.67-.41l-.34-1.84c-1.34,1.26-3.8,3.26-6.2,1.71-.56-.36-.96-1.51-1.25-2.5-.66,1.08-1.64,2.41-2.98,2.89-.47.17-1.56.19-1.75-.18-.23-.43-.41-1.36-.62-2.19-.77,1.48-2.49,3.26-4.18,2.12-1.23-.83-.62-2.78-.32-4.15-2.37-.92-1.68,1.74-4.62,3.93-.83.62-2.07.79-2.88.37s-1.21-1.32-1.64-2.69l-2.13,2.34c-.44.48-1.86.8-2.41.38-2.76-2.14,2.08-9.49,3.03-12.77-1.5-.51-5.27.14-5.82,2-.33-.65-.49-1.84-.15-2.75.25-.65,1.43-1.24,2.32-1.25h4.15c.63,0,.6-1.89.86-2.43.36-.75,2.47-.28,2.51.73l.09,2.17,5.08-.72c.13-.02.58-.18.71-.21s.3.41.24.53c-.7,1.22-5.08,1.53-6.72,1.72l-3.26,6.75c-.77,1.6-1.63,3.07-1.47,5.02,3.83-2.24,3.46-8.62,8.54-9.54.69-.12,1.84.24,2.04.8.17.48.05,1.5-.4,1.75-.19.11-.74-.49-.72-.7l.06-.99c-2.15,1.14-4.94,7.48-3.29,8.61.31.21,1.22-.19,1.43-.53l1.58-2.57c-.33-.74-.83-1.89-.54-2.46.22-.42,1.51-.5,1.86-.42l.11,1.88c2.86.25,3.09-2.94,3.63-5.18.58-.14,1.89.03,2.25.45,1.62,1.84-2.14,6.11-2.65,8.81,2.58-.29,4.95-6.66,5.62-8.65.13-.39,1.03-.67,1.5-.6,2.75.42-1.74,7.78-2.13,9.28,4.98-1.94,2.9-8.33,8.57-9.52,1.26-.26,2.39.3,2.58,1.67.03.22-.02.7-.18.81-.21.16-.89.08-.93-.19-.06-.39-.26-.96-.51-1.27-2.05,1.36-4.36,6.73-3.11,8.31.83,1.04,3.72-1.51,4.12-2.12Z"/>
  <path class="cls-14" d="M247.36,112.03c-2.86,1.47-4.9,3.39-6.39,6.12-5.37,9.84-2.34,23.64,8.28,27.28,3.72,1.27,7.29,1.19,10.82-.63-1.48-1.77-1.87-4.31-.52-6.3s3.67-3.04,6.15-2.2c1.38.47,3.11,1.44,3.85,2.78,1.84,3.36.83,7.28-1.61,10.13-3.44,4.02-8.63,5.61-13.86,5.65-4.77.04-8.75-1.21-12.65-3.81-5.63-3.76-9.52-9.26-10.75-16.1-2.17-12.01,1.55-25.54,13.33-31.1,7.18-3.39,18.7-2.54,22.24,5.57,5.16-6.64,14.67-9.47,22.27-5.66,1.67-1.18,3.23-2.47,4.98-3.53,6.02-3.65,13.4-4.02,19.83-1.47,2.12.84,3.88,1.66,5.42,3.38,2.93-2.6,6.35-4.01,10.03-4.59v-11.19s-106.92,0-106.92,0l-.05,72.86c0,2.67-2.02,4.36-4.25,4.42s-4.46-1.79-4.47-4.41l-.05-28.53c-7.17,7.87-21.4,7.22-29.8,3.08-4.62-2.28-8.43-5.57-10.68-10.2-6.12-12.55.99-26.99,14.05-31.35,9.2-3.07,18.55-.88,26.39,4.69l-.04-10.58-47.16.02.03,65.53c0,2.46-2.53,3.74-4.48,3.73-2.26,0-4.31-1.66-4.31-4.23l-.03-38.27-16.78-.1c-2.58-.02-4.51-2.17-4.61-4.39-.1-2.42,1.8-4.53,4.4-4.53l16.98-.03v-17.67s-11.2-.06-11.2-.06l.03-7.64,138.79.04,20.09-.05c-8.99-10.74-6.66-25.86,1.81-35.46,4.49-5.08,10.01-8.31,16.65-9.64,15.28-3.06,32.42,2.95,40.56,16.75,5.18,8.78,7.19,17.82,5.51,28.39l27.78.02v7.61s-29.86.04-29.86.04l.14,23.33-.02,58.07c0,1.5-1.28,2.79-2.08,3.42-1.18.93-3.08,1.11-4.38.37s-2.5-2.36-2.5-4.14v-81.06s-21.2,0-21.2,0l.09,11.42c5.39,1.3,10.15,5.89,12.55,10.4,6.92,13.01,3.4,29.69-9.4,37.16-4.59,2.68-16.05,6.87-18.7.65-.64-1.51,0-3.12.88-4.26,1.01-1.31,2.41-1.54,4.16-1.62,3.81-.19,7.55-1.04,10.5-3.48,1.11-.92,2.39-1.93,3.31-2.99,6.02-6.99,5.7-19.85-2.58-25.68-3.96-2.79-9.15-2.13-13.22.53,2.19,4.42,1.66,9.43-2.37,12.4-1.9,1.4-4.92,1.2-7.09.04-3.93-2.11-5.14-8.98-2.21-12.3-.86-1.81-6.06-2.59-7.79-2.6-5.97-.06-11.04,3.44-13.81,8.49-4.94,8.99-2.36,20.88,7.03,25.69,4.44,2.27,9.4,1.97,13.61-.65,1.67-1.04,3.72-.42,4.99.85,1.2,1.19,1.54,3.54.54,5.11-3.44,5.44-13.21,5.67-19.13,4.06-3.04-.83-5.67-2.52-8.23-4.4-10.23-7.5-12.56-22.61-6.91-33.97-3.38-1.32-6.6.03-9.34,1.97-4.26,3.03.71,4.61-2.22,10.73-1.29,2.7-4.12,3.63-6.98,3.04-4.5-.92-6.07-6.93-3.68-11.58.91-1.77-6.37-7.14-13.75-3.36ZM318.06,78.72l42.54-.02c3.32-13.41-3.2-28.61-15.63-34.53-7.26-3.37-14.97-4.12-22.65-1.94-4.32,1.22-7.57,3.95-10.22,7.45-3.07,4.05-4.67,8.54-4.55,13.66.07,3.25.74,6.22,2.7,8.94,2.04,2.68,4.61,4.8,7.81,6.44ZM210.88,121.95c1.35-1.57,2.13-3.57,2.14-5.57l.03-11.33c-1.54.56-3.23,1.02-4.67.43-6.4-6.62-16.94-7.58-24.16-1.81-5.81,4.63-7.27,12.76-1.64,18.76,3.57,3.81,8.53,5.28,13.66,5.45,5.61.19,10.87-1.55,14.64-5.94Z"/>
  <path class="cls-9" d="M210.88,121.95c-3.77,4.39-9.03,6.13-14.64,5.94-5.13-.17-10.09-1.64-13.66-5.45-5.63-6-4.16-14.13,1.64-18.76,7.22-5.76,17.76-4.81,24.16,1.81,1.44.59,3.13.12,4.67-.43l-.03,11.33c0,2-.79,3.99-2.14,5.57ZM207.47,123.07c2.73-1.97,4.04-4.44,4.01-7.65l-.06-8.48-3.71-.15c-4.46-4.36-10.55-6.21-16.55-4.71-4.79,1.19-8.75,4.29-10.15,9.14-.66,2.27-.55,5.08.49,7.21,4.17,8.55,18.06,10.34,25.97,4.64Z"/>
  <path class="cls-9" d="M318.06,78.72c-3.19-1.64-5.76-3.77-7.81-6.44-1.97-2.72-2.63-5.69-2.7-8.94-.12-5.12,1.48-9.61,4.55-13.66,2.66-3.5,5.9-6.22,10.22-7.45,7.68-2.18,15.39-1.43,22.65,1.94,12.43,5.92,18.95,21.12,15.63,34.53l-42.54.02ZM320.58,77.33l38.8-.02c1.6-9.56-1.17-20.2-8.28-27.05s-18.95-9.2-28.75-6.39c-8.45,2.42-14.31,12.83-13.09,21.79.56,4.11,3.14,7.28,6.3,9.74,1.45,1.13,2.87,1.92,5.02,1.92Z"/>
  <path class="cls-5" d="M320.58,77.33c-2.16,0-3.57-.79-5.02-1.92-3.15-2.46-5.74-5.63-6.3-9.74-1.22-8.96,4.65-19.37,13.09-21.79,9.8-2.81,21.36-.72,28.75,6.39s9.88,17.49,8.28,27.05l-38.8.02Z"/>
  <path class="cls-8" d="M252.37,193.46c-.72,1.71-4.18,7.97-6.45,6.65-2.73-1.59,1.56-7.59,1.38-9.64-3.19,1.18-5.76,7.17-6.1,9.83-.58-.02-1.55-.09-1.65-.46l-.56-1.98-1.68,1.51c-.86.77-2.17,1.19-3.43.82-.88-.26-1.88-1.31-2.46-2.3-1.28,1.01-2.87,2.27-4.44,2.38-1.72.12-2.97-1.2-3.25-2.79-.94,1.03-2.26,3.42-4.07,2.67-2.59-1.08.31-6.9,1.21-9.08l-1.96.2c-1.81,3.89-4.22,7.33-7.39,10.19-1.11,1-1.15,6.32-5.88,5.89-.59-.05-1.4-.77-1.61-1.33-.18-.47.18-1.6.63-1.87l2.91-1.73c.69-.41,1.39-1.78,1.76-2.65-1.25.35-2.19.75-3.15.31-3.03-1.4-1.44-7.03,1.32-9.58,1.1-1.02,2.8-1.33,4.06-.84l.98,1.35c.44-1.35.69-1.84,1.74-1.55,3.06.83-1.65,8.38-2.38,10.58,2.08-1.49,5.17-6.66,6.14-8.96-.93-.79-1.32-1.32-1.25-2.23.06-.73.62-1.86,1.57-1.76s.81,1.67,1.19,3.08c.18.69,2.51-1.21,3.39-.44s.68,2.2.25,3.19l-2.62,5.98c4.17-1.3,3.37-7,7.46-9.11.69-.35,2.14-.46,2.93-.25,1.68.44-.24,5.49-4.14,6.36-.2.62-.33,1.81-.1,2.44.31.86,1.71.91,2.26.36,4.52-4.46,2.88-5.47,6.22-8.4.93-.82,2.98-1.6,3.87-.57,1.37,1.6-.16,3.56-1.5,4.52l-2.75,1.98c-.72.52-.59,3.02.67,2.78,3.74-.73,5.63-6.1,6.66-9.25.19-.38,1.45-.45,1.69-.1s.51,1.07.81,1.78c.87-.96,2.38-2.74,3.89-1.82,1.38.85.81,3.48.3,4.8l-1.75,4.61c1.11-.53,1.53-1.12,2.19-1.92,2.62-3.15,1.37-4.2,3.12-3.64ZM230.34,190.45c-1.05,0-3.06,3.38-3.28,4.37,2.4-.35,4.2-4.37,3.28-4.37ZM212.38,192.13c-.84-.3-1.14-.34-1.18-.54l-.25-1.24c-2.2,1.81-3.71,4.37-3.55,7.35.02.39.35,1.11.68,1.17,1.59.29,3.8-5.67,4.3-6.74ZM237.61,190.85c-1.11,1.08-2.13,2.27-2.55,3.99,3.58-1.12,4.32-5.72,2.55-3.99ZM207.65,203.69c-.82.15-2.12.67-2.68,1.12-.28.23-.27,1.23,0,1.41,1.04.7,2.41-1.3,2.68-2.54Z"/>
  <path class="cls-12" d="M207.47,123.07c-7.91,5.7-21.8,3.91-25.97-4.64-1.04-2.13-1.15-4.94-.49-7.21,1.4-4.85,5.37-7.95,10.15-9.14,6.01-1.5,12.1.35,16.55,4.71l3.71.15.06,8.48c.02,3.22-1.28,5.69-4.01,7.65Z"/>
  <path class="cls-6" d="M331.36,200.32c-3.49.2.83-9.51,1.33-10.93,5.37-.05-1.62,7.81-.63,9.7,2.39-.88,4.31-6.47,5.16-8.77.31-.85,1.01-1.19,1.84-.93.53.17,1.08,1.12.79,1.86l-3.5,8.87c2.23-2.22,3.74-4.68,5.15-7.42.86-1.67,2.21-3.21,4.15-3.45.7-.09,1.75.24,2.03.69s.26,1.86-.4,1.89c-.37,0-.71-1.03-.82-1.55-2.07,1.08-4.82,7.27-3.12,8.71.23.19,1.13-.14,1.29-.4l1.71-2.91-.6-1.75c-.1-.29.19-.97.46-1.08s1.28-.29,1.33,0l.29,1.51c2.19,1.45,3.17-3.26,3.83-4.89.33-.1,1.45.17,1.78.51,1.65,1.71-2.68,6.64-2.48,8.93,3.24-1.86,4.33-5.32,5.15-8.79.15-.64,1.11-.77,1.62-.66,3.32.71-1.98,7.53-1.45,9.25.43,1.41,4.82-6.87,4.88-7.5-.5-.85-.95-1.62-1.13-2.5-.13-.63.83-1.49,1.34-1.44.72.07,1.12.85,1.2,1.64l.13,1.23c.09.89,2.69-1.41,3.45-.52,2.1,2.47-2.12,6.71-2.38,9.31,2.74-1.25,2.98-3.94,4.67-5.95.52.73.14,1.59-.31,2.34-1.02,1.69-3.45,5.97-5.64,4.72s.98-7.18,1.33-8.77c.05-.21-.92-.21-1.29-.24l-4.62,7.54c-.75,1.23-2.45,2.05-3.58,1.4-.36-.27-.61-1.46-.65-1.8-.84.86-1.69,1.63-2.82,2.02-.78.27-1.91-.49-1.88-1.29l.15-3.4c-2.42-.58-1.41,1.37-4.12,3.9-.85.79-2.05.99-3.01.71-1.18-.34-1.58-1.61-1.85-3-1.48,1.74-2.88,3.23-4.58,4.85-.49.47-.88,1.83-1.12,2.56-.76,2.35-3.17,3.37-5.33,2.51-.59-.24-1.3-1.57-.93-1.98,2.43-2.72,3.57-.72,5.57-5.64-.95.45-1.69.85-2.39.89ZM331.85,203.48c-.96.29-2.23,1.39-2.57,2.17-.1.23.53.86.77.77,1.24-.5,1.77-1.62,1.8-2.94Z"/>
  <path class="cls-6" d="M395.54,189.79c1.45,4.41-4.11,5.37-4.52,6.86-.23.82.05,2.07.81,2.58,2.37-.85,3.98-2.97,4.99-5.25.14-.31.7-.77,1.07-.89-.4,3.01-4.82,9.15-8.36,6.52-1.37-1.02-1.45-2.2-.88-4.23l-2.27.31c-.44,3.5-1.17,6.74-3.15,9.68-.66.98-2.04,2.12-3.3,1.39-.82-.48-.7-2.3-.39-3.18l1.6-4.45c-1.11.76-1.92,1.36-3.09,1.07l-.69-2.29c-.91,1.11-2.92,3.12-4.17,2.25-1.5-1.05-.08-5.05.54-6.57l3.94-9.65c.18-.44.32-1.16.58-1.39.29-.27,1.26.02,1.66.43.49.51.5,1.98.17,2.74l-4.27,9.72c-.48,1.1-1.17,2.19-.77,3.47,2.85-2.4,4.3-5.85,5.29-9.4.29-.26,1.5.06,1.9.44,1.61,1.55-2.11,6.08-2.57,8.73,2.09.52,6.47-10.5,7.16-12.18l1.55-3.8c.3-.36,1.41-.02,1.67.35.86,1.23-.07,3.5-.74,5.08l-2.64,6.28c.59.25,1.77.38,2.05.01.77-1.2,1.6-2.67,2.55-3.75s3.34-1.79,4.29-.86ZM394.67,190.43c-.54-.55-3.09,3.45-3.01,4.17,1.48-.1,4.07-3.08,3.01-4.17ZM381.15,205.7c1.09,1.46,5.62-9.68,4.29-9.58l-2.34,4.69c-.8,1.6-1.4,3.3-1.94,4.89Z"/>
  <path class="cls-13" d="M139.67,152.67c.57-4.39-1.74-7.45-4.15-10.84-1.62.64-3.13,1.6-4.79,2.07-5.39,1.53-11.04,1.69-16.47.37-5.12-1.25-11.68-5.8-13.61-11.22-3.45-9.68,2.52-19.62,10.75-24.49,5.91-3.5,10.96-3.48,14.8-8.26,3.46-4.32,3.12-10.44-1.58-13.66-3.69-2.53-8.85-1.63-10.96,2.36-.7,1.32-.67,3.14.51,3.95,1.46-.93,2.99-2.08,4.74-1.99,2.41.13,4.5,2.15,4.72,4.51.18,1.94-.22,3.87-1.52,5.15-3.71,3.64-9.02,3.25-12.87.09-1.71-1.4-3.12-2.74-3.92-4.89-1.89-5.04-.86-10.49,2.93-14.41,6.59-6.83,18.06-6.94,24.27.23,4.01,4.63,5.59,11.18,3.91,17.23-1.45,5.22-5.1,9.41-9.74,12.08-2.51,1.44-5.07,2.48-7.74,3.56-5.11,2.07-9.35,5.58-10.14,11.33-.46,3.35,1.09,6.26,3.9,8.01,5.03,3.14,12.33,3.1,17.52.73-2.76-4.17-1.97-8.66,2.16-11.03,4.72-2.71,10.94-.6,12.73,4.73.45,1.33.42,3.71-.21,4.93-.74,1.42-1.81,2.46-2.81,3.72,3.69,3.63,5.89,8.35,6.18,13.51.3,5.16-2.59,10.14-7.47,11.47-2.01.55-3.76-.19-4.68-1.71-2.3-3.81,3.31-5.82,3.53-7.53Z"/>
  <path class="cls-9" d="M74.01,129.54c-7.68,4.8-17.75,4.39-24.63-1.49-3.33-2.85-4.81-7.41-4.03-11.57.91-4.79,4.25-8.03,8.44-10.31,5.75-2.54,12.43-1.92,17.71,1.6,1.82,2.58,4.92,3.14,7.53.97l-.09,13.3c-.02,3.18-2.4,5.52-4.93,7.51ZM77.49,111.33l-4.25-.04c-1.91-1.47-3.46-3.11-5.51-3.97-6.53-2.74-13.93-1.06-18.35,4.29-4.25,5.14-3.3,12.46,2.14,16.2,6.33,4.35,14.4,4.67,21.01.64,6.96-4.24,4.56-9.75,4.96-17.12Z"/>
  <path class="cls-11" d="M92.14,190.44c-11.52,4.34-25.11,1.26-30.39-10.63-3.54-7.98-1.32-17.35,5.17-23.14,3.46-3.09,7.56-4.58,12.2-5.52l-.02-15.69c-2.5,1.71-4.41,3.59-7.07,4.51-2.17.75-4.15,1.27-6.42,1.52-9.56,1.06-19.3-2.43-25.12-10.13-3.39-4.49-4.83-9.75-4-15.32,1.71-11.45,11.95-19.85,23.31-20.26,7.08-.49,13.73,1.49,19.29,6.33l.06-15.74-68.61.02-.02-7.65,85.01-.02.13,7.66-7.7.06v64.69c1.33.84,2.55,1.68,3.12,3.21.81,2.16-.71,5.25-3.15,5.24l-6.7-.04c-4.19-.03-8.4,2.25-10.42,6.04-2.74,5.14-1.71,12.53,3.83,16.1,7.78,5,17.81,1.64,21.84-6.47.56-1.13,1.85-2,2.78-2.13,1.27-.18,2.67.15,3.4,1.13,1.4,1.89.9,4.09.17,6.07-1.19,3.27-3.17,5.69-6.02,7.58-1.53,1.01-2.87,1.94-4.67,2.62ZM74.01,129.54c2.54-1.99,4.91-4.33,4.93-7.51l.09-13.3c-2.61,2.17-5.71,1.62-7.53-.97-5.28-3.52-11.96-4.14-17.71-1.6-4.19,2.28-7.53,5.52-8.44,10.31-.79,4.17.69,8.72,4.03,11.57,6.88,5.88,16.95,6.29,24.63,1.49Z"/>
  <path class="cls-7" d="M77.49,111.33c-.4,7.37,2,12.88-4.96,17.12s-14.68,3.7-21.01-.64c-5.44-3.74-6.39-11.06-2.14-16.2,4.42-5.35,11.82-7.03,18.35-4.29,2.05.86,3.59,2.5,5.51,3.97l4.25.04Z"/>
  <path class="cls-6" d="M321.02,192.94c.28-.23,1.58-.48,1.69-.15.14.4.21.97.38,1.99l2.67-1.59c.37,2.22-1.75,2.17-3.1,2.56-1.16,1.61-2.97,5.41-5.64,4.38-.92-.35-1.63-1.41-2.12-2.51l-2.28,2.23c-.64.62-2.5.57-2.69-.49-.32-1.87.2-3.94.94-5.69l2.7-6.36c-2.23-.31-4.33-.26-5.67,1.86-.31-.52-.59-1.5-.47-2.17.14-.83,1.18-1.63,2.04-1.64l3.94-.03c2.16-.02.76-2.63,2.38-2.87.65-.09,1.59.52,1.63,1.07l.17,2.17,4.96-.63c.22-.03.71-.6.83-.49l.45.43c1.14,1.09-6.7,2.08-7.07,2.13-1.54,4.56-4.06,7.33-4.96,11.64,3.89-1.41,3.41-7.54,8.3-9.37,1.14-.43,2.66-.04,2.78,1.16.02.21-.05.76-.1.93-.07.23-.8.37-.88.14l-.45-1.31c-1.69.89-5.03,7.21-2.73,8.69,1.28-.6,2.38-2.23,2.32-3.55-.03-.72-.91-1.81-.04-2.52Z"/>
  <path class="cls-9" d="M384.17,58.98l-2.58.62c-.34-1.02-.39-2.01-.24-3.22l2.65.14.17,2.46Z"/>
  <path d="M392.27,59.67c0,5.34-4.33,9.68-9.68,9.68s-9.68-4.33-9.68-9.68,4.33-9.68,9.68-9.68,9.68,4.33,9.68,9.68ZM390.27,59.63c0-4.25-3.45-7.7-7.71-7.7s-7.71,3.45-7.71,7.7,3.45,7.7,7.71,7.7,7.71-3.45,7.71-7.7Z"/>
  <path class="cls-1" d="M111.31,64.05c-6.28-.61-10.55-5.89-10.55-12.19,1.55-.26,2.87.32,4.25,1.04,4.02,2.11,6.27,6.36,6.3,11.15Z"/>
  <path class="cls-1" d="M124.4,59.99c-4.26-5.13-4.05-11.66.06-16.33,4.35,4.71,4.27,11.85-.06,16.33Z"/>
  <path class="cls-2" d="M119.67,67.01c-3.84-1.83-6.08-5.47-6.31-9.65-.11-2.01-.02-3.99,1.36-5.61,5.16,3.28,7.31,9.38,4.95,15.27Z"/>
  <path class="cls-10" d="M99.99,59.75c-6.38-.17-10.95-6.6-10.33-12.37,6.86,1.05,9.82,6.16,10.33,12.37Z"/>
  <path class="cls-2" d="M110.21,71.54c-5.44,1.28-12.25-3.26-12.93-9.26,3.17-.27,6.25.62,8.8,2.47,2.05,1.73,3.6,3.7,4.13,6.79Z"/>
  <path class="cls-3" d="M111.25,41.18c-5.52-1.48-9.66-8.68-6.82-14.3,5.45,2.45,8.27,8.11,6.82,14.3Z"/>
  <path class="cls-4" d="M115.51,30.22c-5.27-3.18-5.7-10.77-2.45-15.33,4.75,2.66,6.15,11.22,2.45,15.33Z"/>
  <path class="cls-3" d="M138.06,41.29c-1.87-5.94,1.37-12.22,6.97-14.59,1.34,4.24.38,8.47-2.54,11.61-1.36,1.08-2.51,1.89-4.42,2.98Z"/>
  <path class="cls-3" d="M148.22,49.63c-.67-3.75,1.1-7.56,3.59-10.2,1.43-1.51,3.61-2.19,5.74-2.96.96,5.88-3.03,11.73-9.33,13.16Z"/>
  <path class="cls-4" d="M100.49,35.82c-6.2-1.59-9.76-7.95-7.95-13.82,6.02,2.33,8.79,7.13,7.95,13.82Z"/>
  <path class="cls-10" d="M119.64,49.93c-5.82-2.44-7.18-10.91-3.88-15.49,4.65,3.07,6.33,10.29,3.88,15.49Z"/>
  <path class="cls-3" d="M101.15,49.46c-3.28.43-7.52-4.08-8.64-6.76-.81-1.93-.79-4.14-.57-6.22,5.97,1.65,9.83,6.82,9.21,12.98Z"/>
  <path class="cls-10" d="M176.35,71.45c-3.87,4.82-10.43,5.84-15.86,3.44,2.74-5.31,10.89-7,15.86-3.44Z"/>
  <path class="cls-4" d="M89.4,43.89c-5.65.68-10.73-6.66-10.03-12.23,6.34.91,9.68,5.9,10.03,12.23Z"/>
  <path class="cls-4" d="M133.9,30.31c-3.78-3.94-2.65-12.47,2.14-15.57,3.41,4.79,2.71,11.44-2.14,15.57Z"/>
  <path class="cls-1" d="M162.8,67.16c-2.49,5.68-9.2,8.22-14.96,5.71,2.92-5.64,9.1-7.63,14.96-5.71Z"/>
  <path class="cls-3" d="M84.24,65.03c-5.43,2.54-12.54.3-14.96-5.41,2.86-1.27,5.75-.93,8.65-.25,2.55,1.14,4.73,2.74,6.31,5.66Z"/>
  <path class="cls-1" d="M137.92,64.02c-.38-5.43,4.63-11.92,10.49-12.16.2,6.07-4.23,11.43-10.49,12.16Z"/>
  <path class="cls-4" d="M170.18,31.57c.6,5.26-4.98,12.52-10.28,12.11-.07-6.02,4-11.46,10.28-12.11Z"/>
  <path class="cls-3" d="M88.55,74.89c-4.47,2.16-12.52,1.65-15.4-3.39,4.19-2.77,9.43-2.43,13.22.63.9.7,1.4,1.35,2.18,2.77Z"/>
  <path class="cls-3" d="M124.21,41.67c-4.12-4.57-3.67-11.34.72-15.77,3.85,4.64,3.81,11.27-.72,15.77Z"/>
  <path class="cls-3" d="M88.37,53.91c-6.33.21-11.54-4.26-12.17-10.67,6.04.3,11.33,4.62,12.17,10.67Z"/>
  <path class="cls-10" d="M159.41,47.81c.93,5.2-4.6,12.11-10.22,11.66-.17-1.38.19-2.71.68-4.01,1.56-4.19,4.89-7.17,9.54-7.65Z"/>
  <path class="cls-4" d="M156.21,22.25c2.21,5.34-1.93,12.76-7.87,13.57-.67-5.85,2.25-11.44,7.87-13.57Z"/>
  <path class="cls-2" d="M134.49,51.86c.69-.28,4.06,9.98-4.58,15.07-2.46-5.18-.88-11.07,3.57-14.5.25-.2.77-.48,1.01-.58Z"/>
  <path class="cls-1" d="M101.12,73.07c-3.89,1.37-8.23.83-11.45-1.73-1.38-1.1-2.33-2.74-3.41-4.17,6.21-2.03,12.09.1,14.85,5.9Z"/>
  <path class="cls-10" d="M111.49,54.17c-5.44-.95-9.3-9.33-6.86-14.06,6.31,2.88,7.64,7.41,6.86,14.06Z"/>
  <path class="cls-2" d="M151.67,62.42c-.82,5.8-7.05,9.94-12.86,9.34,1.44-5.8,6.74-10.43,12.86-9.34Z"/>
  <path class="cls-3" d="M179.71,59.06c-1.45,5.77-9.44,8.47-14.68,6.11,1.48-3.29,4.87-5.64,8.48-6.18,2.02-.3,4.09-.04,6.2.08Z"/>
  <path class="cls-10" d="M94.49,63.98c-5.03,1.1-9.7-.98-12.23-5.1-.66-1.07-1.01-2.04-1.01-3.4,6.25-.64,10.7,2.93,13.24,8.5Z"/>
  <path class="cls-10" d="M168.14,55.79c-1.49,6.18-6.53,9.35-13.1,8.18,1.63-5.72,7.25-9.26,13.1-8.18Z"/>
  <path class="cls-10" d="M137.95,54.28c-1.94-6.19.86-11.46,6.7-14.07,1.73,5.64-.88,11.81-6.7,14.07Z"/>
  <path class="cls-4" d="M193.54,65.23c-2.43,5.16-10.69,6.3-15.23,3.42.3-.77.82-1.3,1.47-1.86,4.14-3.53,8.68-3.81,13.76-1.56Z"/>
  <path class="cls-4" d="M63.79,47.23c4.93-1.5,12.36,1.76,13.53,7.38-5.66,1.71-11.7-1.59-13.53-7.38Z"/>
  <path class="cls-3" d="M172.87,43.77c-.69,5.87-5.85,10.27-11.66,9.92.59-6.02,5.42-10.57,11.66-9.92Z"/>
  <path class="cls-4" d="M185.39,47.18c-2.16,6.17-6.71,8.78-13.37,7.74.7-5.13,8.12-9.2,13.37-7.74Z"/>
  <path class="cls-10" d="M130,49.83c-1.56-1.61-1.51-3.68-1.53-5.72-.03-3.71,1.43-7.14,4.7-9.25,3.35,5.33,1.89,11.41-3.17,14.97Z"/>
  <path class="cls-4" d="M70.92,68.22c.31.61-4.18,3.26-10.19,1.13-2.16-.77-3.99-2.13-5.03-4.26,2.98-1.15,6-1.62,8.98-.91,2.04.49,5.64,2.86,6.25,4.04Z"/>
  <path d="M379.18,54.42h1.42v10.1h-1.42v-10.1ZM379.79,58.9h3.44c.27,0,.51-.07.72-.19s.37-.31.48-.55.17-.51.17-.82-.06-.58-.17-.82-.27-.42-.48-.55c-.21-.13-.45-.2-.72-.2h-3.44v-1.35h3.39c.58,0,1.1.12,1.54.36.44.24.78.58,1.03,1.02.24.44.37.95.37,1.53s-.12,1.09-.37,1.53c-.24.44-.59.78-1.03,1.02-.44.24-.95.36-1.53.36h-3.39v-1.35ZM382.54,59.94l1.41-.32,2.58,4.9h-1.68l-2.31-4.58Z"/>
</svg>